HIERARCHY
ROOT root
{
	OFFSET 0.000000 0.000000 0.000000
	CHANNELS 6 Xposition Yposition Zposition Zrotation Yrotation Xrotation
	JOINT lhip
	{
		OFFSET 0.058581 -0.082280 -0.017664
		CHANNELS 3 Zrotation Yrotation Xrotation
		JOINT lknee
		{
			OFFSET 0.043451 -0.386469 0.008037
			CHANNELS 3 Zrotation Yrotation Xrotation
			JOINT lankle
			{
				OFFSET -0.014790 -0.426874 -0.037428
				CHANNELS 3 Zrotation Yrotation Xrotation
				JOINT ltoe
				{
					OFFSET 0.041054 -0.060286 0.122042
					CHANNELS 3 Zrotation Yrotation Xrotation
					End Site
					{
						OFFSET 0.000000 0.000000 0.000000
					}
				}
			}
		}
	}
	JOINT rhip
	{
		OFFSET -0.060310 -0.090513 -0.013543
		CHANNELS 3 Zrotation Yrotation Xrotation
		JOINT rknee
		{
			OFFSET -0.043257 -0.383688 -0.004843
			CHANNELS 3 Zrotation Yrotation Xrotation
			JOINT rankle
			{
				OFFSET 0.019056 -0.420046 -0.034562
				CHANNELS 3 Zrotation Yrotation Xrotation
				JOINT rtoe
				{
					OFFSET -0.034840 -0.062106 0.130323
					CHANNELS 3 Zrotation Yrotation Xrotation
					End Site
					{
						OFFSET 0.000000 0.000000 0.000000
					}
				}
			}
		}
	}
	JOINT lowerback
	{
		OFFSET 0.004439 0.124404 -0.038385
		CHANNELS 3 Zrotation Yrotation Xrotation
		JOINT upperback
		{
			OFFSET 0.004488 0.137956 0.026820
			CHANNELS 3 Zrotation Yrotation Xrotation
			JOINT chest
			{
				OFFSET -0.002265 0.056032 0.002855
				CHANNELS 3 Zrotation Yrotation Xrotation
				JOINT lowerneck
				{
					OFFSET -0.013390 0.211636 -0.033468
					CHANNELS 3 Zrotation Yrotation Xrotation
					JOINT upperneck
					{
						OFFSET 0.010113 0.088937 0.050410
						CHANNELS 3 Zrotation Yrotation Xrotation
						End Site
						{
							OFFSET 0.000000 0.000000 0.000000
						}
					}
				}
				JOINT lclavicle
				{
					OFFSET 0.071702 0.114000 -0.018898
					CHANNELS 3 Zrotation Yrotation Xrotation
					JOINT lshoulder
					{
						OFFSET 0.122921 0.045205 -0.019046
						CHANNELS 3 Zrotation Yrotation Xrotation
						JOINT lelbow
						{
							OFFSET 0.255332 -0.015649 -0.022946
							CHANNELS 3 Zrotation Yrotation Xrotation
							JOINT lwrist
							{
								OFFSET 0.265709 0.012698 -0.007375
								CHANNELS 3 Zrotation Yrotation Xrotation
								End Site
								{
									OFFSET 0.000000 0.000000 0.000000
								}
							}
						}
					}
				}
				JOINT rclavicle
				{
					OFFSET -0.082954 0.112472 -0.023707
					CHANNELS 3 Zrotation Yrotation Xrotation
					JOINT rshoulder
					{
						OFFSET -0.113228 0.046853 -0.008472
						CHANNELS 3 Zrotation Yrotation Xrotation
						JOINT relbow
						{
							OFFSET -0.260127 -0.014369 -0.031269
							CHANNELS 3 Zrotation Yrotation Xrotation
							JOINT rwrist
							{
								OFFSET -0.269108 0.006794 -0.006027
								CHANNELS 3 Zrotation Yrotation Xrotation
								End Site
								{
									OFFSET 0.000000 0.000000 0.000000
								}
							}
						}
					}
				}
			}
		}
	}
}
MOTION
Frames: 5
Frame Time: 0.033333
0.467837 0.263118 0.966642 87.791196 1.935916 85.974974 1.937949 4.856567 12.206851 -5.520286 -8.819687 73.519238 -1.000435 7.040929 11.562755 0.000000 -0.000000 0.000000 6.710632 5.592285 -25.208143 -0.119278 -7.480997 33.462138 -3.615321 -7.227785 -4.504997 0.000000 -0.000000 0.000000 1.343307 -8.107719 19.090557 1.783606 2.863372 -6.138316 0.502440 -2.279997 2.184531 -0.146898 0.969611 -17.627843 1.661911 4.710134 6.245464 -26.287062 10.068773 -0.461228 -57.179678 -3.618122 15.597258 -174.105737 -74.265874 -171.467760 4.341551 -12.208286 -31.695873 25.608443 -7.799323 -1.672629 56.277867 -13.475368 18.328115 -150.985734 77.399697 -134.850174 4.583558 15.666742 -15.857416 
0.548616 0.263045 0.943059 86.460127 1.740952 86.004172 2.939836 3.767793 4.623083 -5.011886 -3.739387 86.023875 1.158325 9.221266 6.834399 0.000000 -0.000000 0.000000 9.011237 6.698691 -23.186016 -0.471255 -3.828073 40.935304 -6.925081 -12.279219 -14.093279 0.000000 -0.000000 0.000000 1.202644 -6.387470 19.369387 2.369747 3.556308 -6.881170 -0.011713 -1.948598 3.570719 0.509341 1.322609 -20.262316 0.410438 4.166463 8.806830 -27.862025 10.913453 -1.464672 -54.559193 -3.271550 14.276849 -162.048355 -76.272114 179.105480 5.112693 -12.165473 -36.193966 27.981760 -6.235289 -2.695372 54.075367 -10.424227 19.763794 -149.093162 76.159225 -131.842595 3.317016 15.750044 -19.337730 
0.678026 0.265053 0.924190 83.841841 0.955376 86.885951 4.576633 1.468199 -11.327542 -5.325756 4.508365 100.318022 2.323768 8.109179 3.744735 0.000000 -0.000000 0.000000 11.039698 8.197653 -15.205433 -0.338544 0.139945 43.653175 -9.526079 -19.461576 -22.794987 0.000000 -0.000000 0.000000 0.192340 -2.755695 19.321728 3.087894 4.218939 -6.755534 -0.213657 -0.495249 3.803295 1.604057 1.583991 -23.282308 -0.813405 3.534332 10.408089 -29.263650 13.121623 -1.084710 -53.342187 -0.462290 13.051623 -149.944078 -76.501725 166.346980 6.400544 -12.338301 -33.928309 30.148555 -4.074533 -3.157020 51.031770 -2.274206 20.963320 -150.379809 74.855694 -132.665843 0.768408 15.905790 -20.525116 
0.785336 0.268212 0.929119 83.228846 -0.557819 87.316076 4.995686 0.623947 -22.976946 -3.879278 8.440624 102.362765 1.605425 5.381021 -0.615841 0.000000 -0.000000 0.000000 9.358302 3.864727 -5.908651 -0.783935 3.011840 39.838377 -6.801475 -17.440097 -26.196060 0.000000 -0.000000 0.000000 0.061718 1.343070 18.640556 2.572557 3.286250 -5.566009 -0.396003 0.615663 2.822346 1.633919 0.278745 -23.039388 -0.875709 1.901148 8.597780 -28.258020 12.745340 -0.187778 -52.861793 4.476129 12.735367 -150.386451 -73.454733 167.401323 5.569296 -11.921399 -35.565015 28.525599 -2.302720 -3.343839 51.825817 0.989392 19.533111 -154.308826 71.900220 -136.559590 2.021097 15.587880 -19.873762 
0.897717 0.273566 0.947548 82.216676 -2.748452 87.635233 4.608092 -0.759688 -31.117246 -1.920238 13.100169 95.556245 2.529980 3.664522 -3.987565 0.000000 -0.000000 0.000000 4.687668 -0.549161 3.523633 -1.488217 5.716642 34.457938 -1.442503 -11.769619 -21.619603 0.000000 -0.000000 0.000000 -0.204201 5.899998 18.356683 1.326519 3.052726 -5.522962 -0.745780 2.033869 2.051952 1.199310 -1.561614 -22.287546 -0.228401 0.249732 8.340620 -27.086647 12.910808 -0.143180 -52.398785 7.641038 12.499783 -148.034083 -70.536737 163.176774 2.045939 -14.292406 -35.655497 26.705311 -0.855795 -3.524478 52.695097 1.217721 19.441117 -154.636784 66.689920 -139.302125 3.828063 16.586120 -19.793937 
